<?xml version="1.0" standalone="no"?>
<!DOCTYPE svg PUBLIC "-//W3C//DTD SVG 20010904//EN"
 "http://www.w3.org/TR/2001/REC-SVG-20010904/DTD/svg10.dtd">
<svg version="1.0" xmlns="http://www.w3.org/2000/svg"
 width="503.000000pt" height="496.000000pt" viewBox="0 0 503.000000 496.000000"
 preserveAspectRatio="xMidYMid meet">

<g transform="translate(0.000000,496.000000) scale(0.100000,-0.100000)"
fill="white" stroke="none">
<path d="M2235 4924 c-405 -59 -777 -199 -1094 -410 -24 -16 -51 -33 -60 -39
-185 -114 -477 -402 -608 -601 -7 -11 -34 -50 -60 -89 -90 -136 -171 -295
-235 -460 -99 -260 -147 -525 -148 -820 0 -224 32 -491 77 -645 74 -257 82
-276 185 -485 147 -299 285 -480 557 -735 40 -37 191 -150 200 -150 6 0 11 -4
11 -8 0 -20 441 -262 477 -262 4 0 26 -9 48 -19 80 -39 279 -103 373 -121 30
-5 57 -12 61 -15 5 -2 67 -13 139 -25 248 -38 652 -25 887 30 78 18 197 51
225 62 14 5 59 21 100 34 41 14 85 31 97 39 12 8 27 15 33 15 29 0 364 181
420 227 8 7 60 45 115 86 188 140 393 354 537 562 78 114 185 311 249 460 26
61 89 255 89 273 0 8 8 44 19 80 64 226 86 559 56 842 -19 179 -35 252 -102
459 -55 172 -167 415 -243 528 -17 24 -30 46 -30 49 0 8 -139 198 -168 230
-16 17 -39 44 -51 60 -62 80 -212 221 -332 314 -18 14 -38 31 -45 38 -7 6 -15
12 -18 12 -3 0 -33 20 -68 44 -79 55 -164 106 -298 178 -211 113 -525 217
-785 259 -114 18 -494 20 -610 3z m524 -1145 c74 -11 149 -31 231 -61 63 -24
143 -59 150 -67 3 -3 17 -12 33 -20 15 -8 27 -18 27 -23 0 -4 9 -8 20 -8 11 0
20 -4 20 -10 0 -5 13 -16 30 -25 44 -23 180 -160 237 -240 107 -149 180 -323
214 -515 27 -145 7 -417 -36 -500 -8 -16 -15 -36 -15 -44 0 -15 -21 -70 -43
-111 -6 -11 -22 -42 -36 -70 -14 -27 -29 -54 -34 -60 -4 -5 -27 -36 -51 -67
-61 -80 -148 -162 -233 -219 -40 -27 -75 -49 -79 -49 -4 0 -15 -6 -23 -13 -9
-8 -41 -24 -71 -36 -30 -12 -68 -28 -85 -36 -105 -46 -264 -64 -572 -65 l-271
0 -4 -152 c-3 -130 -6 -158 -23 -188 -39 -69 -55 -84 -123 -114 -59 -27 -100
-30 -165 -10 -48 14 -72 29 -113 72 -47 47 -53 59 -58 105 -9 85 -14 1499 -7
1953 l6 421 30 43 c42 61 79 93 122 106 50 16 828 18 922 3z"/>
<path d="M2172 2664 l3 -649 108 -3 c169 -5 466 14 518 33 135 51 239 126 309
225 29 40 46 69 56 90 3 8 12 29 19 45 25 55 55 188 55 239 0 81 -43 249 -81
316 -5 8 -13 24 -18 35 -5 12 -16 27 -25 34 -9 7 -16 18 -16 24 0 16 -138 147
-155 147 -8 0 -15 3 -15 8 0 9 -67 44 -140 73 -51 20 -76 22 -338 26 l-282 5
2 -648z"/>
</g>
</svg>
